/* XPM */
static char *_f9d713ffb5244faf392b948efab0e5buEftZZd5Cydfooyb[] = {
/* columns rows colors chars-per-pixel */
"64 64 6 1 ",
"  c black",
". c #288342",
"X c #22B14C",
"o c #08E349",
"O c #A8E61D",
"+ c #D3F9BC",
/* pixels */
"OOOOOOOOOOOOOOOOOOOOOOOOOOOOOOOOOOOOOOOOOOOOOOOOOOOOOOOOOOOOOOOO",
"OOOOOOOOOOOOOOOOOOOOOOOOOOOOOOOOOOOOOOOOOOOOOOOOOOOOOOOOOOOOOOOO",
"OOOOOOOOOOOOOOOOOOOOOOOOOOOOOOOOOOOOOOOOOOOOOOOOOOOOOOOOOOOOOOOO",
"OOOOOOOOOOOOOOOOOOOOOOOOOOOOOOOOOOOOOOOOOOOOOOOOOOOOOOOOOOOOOOOO",
"OOOOOOOOOOOOOOOOOOOOOOOOOOOOOOOOOOOOOOOOOOOOOOOOOOOOOOOOOOOOOOOO",
"OOOOOOOOOOOOOOOOOOOOOOOOOOOOOOOOOOOOOOOOOOOOOOOOOOOOOOOOOOOOOOOO",
"OOOOOOOOOOOOOOOOOOOOOOOOOOOOOOOOOOOOOOOOOOOOOOOOOOOOOOOOOOOOOOOO",
"OOOOOOOOOOOOOOOOOOOOOOOOOOOOOOOOOOOOOOOOOOOOOOOOOOOOOOOOOOOOOOOO",
"OOOOOOOOOOOOOOOOOOOOOOOOOOOOOOOOOOOOOOOOOOOOOOOOOOOOOOOOOOOOOOOO",
"OOOOOOOOOOOOOOOOOOOOOOOOOOOOOOOOOOOOOOOOOOOOOOOOOOOOOOOOOOOOOOOO",
"OOOOOOOOOOOOOOOOOOOOOOOOOOOOOOOOOOOOOOOOOOOOOOOOOOOOOOOOOOOOOOOO",
"OOOOOOOOOOOOOOOOOOOOOOOOOOOOOOOOOOOOOOOOOOOOOOOOOOOOOOOOOOOOOOOO",
"OOOOOOOOOOOOOOOOOOOOOOOOOOOOOOOOOOOOOOOOOOOOOOOOOOOOOOOOOOOOOOOO",
"OOOOOOOOOOOOOOOOOOOOOOOOOOOOOOOOOOOOOOOOOOOOOOOOOOOOOOOOOOOOOOOO",
"OOOOOOOOOOOOOOOOOOOOOOOOOOOOOOOOOOOOOOOOOOOOOOOOOOOOOOOOOOOOOOOO",
"OOOOOOOOOOOOOOOOOOOOOOOOOOOOOOOOOOOOOOOOOOOOOOOOOOOOOOOOOOOOOOOO",
"OOOOOOOOOOOOOOOOOOOOOOOO                OOOOOOOOOOOOOOOOOOOOOOOO",
"OOOOOOOOOOOOOOOOOOOOOOOO                OOOOOOOOOOOOOOOOOOOOOOOO",
"OOOOOOOOOOOOOOOOOOOOOO  ..XXXXXXXXXXXXX+  OOOOOOOOOOOOOOOOOOOOOO",
"OOOOOOOOOOOOOOOOOOOOOO  ....XXX..XXX..X+  OOOOOOOOOOOOOOOOOOOOOO",
"OOOOOOOOOOOOOOOOOOOOOO  ....XXX..XXX..X+  OOOOOOOOOOOOOOOOOOOOOO",
"OOOOOOOOOOOOOOOOOOOOOO  ..XXXXXXXXXXXXX+  OOOOOOOOOOOOOOOOOOOOOO",
"OOOOOOOOOOOOOOOOOOOO  ..................++  OOOOOOOOOOOOOOOOOOOO",
"OOOOOOOOOOOOOOOOOOOO  ..oo.ooooo.oooo.oo++  OOOOOOOOOOOOOOOOOOOO",
"OOOOOOOOOOOOOOOOOOOO  ..oo.ooooo.oooo.oo++  OOOOOOOOOOOOOOOOOOOO",
"OOOOOOOOOOOOOOOOOOOO  ..oo.ooooo.oooo.oo++  OOOOOOOOOOOOOOOOOOOO",
"OOOOOOOOOOOOOOOOOO  ..oooo.ooooo.oooo.oooo++  OOOOOOOOOOOOOOOOOO",
"OOOOOOOOOOOOOOOOOO  ..ooo.oooooo.ooooo.ooo++  OOOOOOOOOOOOOOOOOO",
"OOOOOOOOOOOOOOOOOO  ..ooo.oooooo.ooooo.ooo++  OOOOOOOOOOOOOOOOOO",
"OOOOOOOOOOOOOOOOOO  ..ooo.oooooo.ooooo.ooo++  OOOOOOOOOOOOOOOOOO",
"OOOOOOOOOOOOOOOOOO  XXXXXXXXXXXXXXXXXXXXXXXX  OOOOOOOOOOOOOOOOOO",
"OOOOOOOOOOOOOOOOOO  XXXX..XXXXX..XXXXX..XXXX  OOOOOOOOOOOOOOOOOO",
"OOOOOOOOOOOOOOOOOO  XXXX..XXXXX..XXXXX..XXXX  OOOOOOOOOOOOOOOOOO",
"OOOOOOOOOOOOOOOOOO  XXXXXXXXXXXXXXXXXXXXXXXX  OOOOOOOOOOOOOOOOOO",
"OOOOOOOOOOOOOOOOOO  ........................  OOOOOOOOOOOOOOOOOO",
"OOOOOOOOOOOOOOOOOO  ..ooo.oooooo.ooooo.ooo++  OOOOOOOOOOOOOOOOOO",
"OOOOOOOOOOOOOOOOOO  ..ooo.oooooo.ooooo.ooo++  OOOOOOOOOOOOOOOOOO",
"OOOOOOOOOOOOOOOOOO  ..ooo.oooooo.ooooo.ooo++  OOOOOOOOOOOOOOOOOO",
"OOOOOOOOOOOOOOOOOOOO  ..oo.ooooo.oooo.oo++  OOOOOOOOOOOOOOOOOOOO",
"OOOOOOOOOOOOOOOOOOOO  ..oo.ooooo.oooo.oo++  OOOOOOOOOOOOOOOOOOOO",
"OOOOOOOOOOOOOOOOOOOO  ..oo.ooooo.oooo.oo++  OOOOOOOOOOOOOOOOOOOO",
"OOOOOOOOOOOOOOOOOOOO  ..oo.ooooo.oooo.oo++  OOOOOOOOOOOOOOOOOOOO",
"OOOOOOOOOOOOOOOOOOOOOO  ..XXXXXXXXXXXXX+  OOOOOOOOOOOOOOOOOOOOOO",
"OOOOOOOOOOOOOOOOOOOOOO  ....XXX..XXX..X+  OOOOOOOOOOOOOOOOOOOOOO",
"OOOOOOOOOOOOOOOOOOOOOO  ....XXX..XXX..X+  OOOOOOOOOOOOOOOOOOOOOO",
"OOOOOOOOOOOOOOOOOOOOOO  ...............+  OOOOOOOOOOOOOOOOOOOOOO",
"OOOOOOOOOOOOOOOOOOOOOOOO                OOOOOOOOOOOOOOOOOOOOOOOO",
"OOOOOOOOOOOOOOOOOOOOOOOO                OOOOOOOOOOOOOOOOOOOOOOOO",
"OOOOOOOOOOOOOOOOOOOOOOOOOOOOOOOOOOOOOOOOOOOOOOOOOOOOOOOOOOOOOOOO",
"OOOOOOOOOOOOOOOOOOOOOOOOOOOOOOOOOOOOOOOOOOOOOOOOOOOOOOOOOOOOOOOO",
"OOOOOOOOOOOOOOOOOOOOOOOOOOOOOOOOOOOOOOOOOOOOOOOOOOOOOOOOOOOOOOOO",
"OOOOOOOOOOOOOOOOOOOOOOOOOOOOOOOOOOOOOOOOOOOOOOOOOOOOOOOOOOOOOOOO",
"OOOOOOOOOOOOOOOOOOOOOOOOOOOOOOOOOOOOOOOOOOOOOOOOOOOOOOOOOOOOOOOO",
"OOOOOOOOOOOOOOOOOOOOOOOOOOOOOOOOOOOOOOOOOOOOOOOOOOOOOOOOOOOOOOOO",
"OOOOOOOOOOOOOOOOOOOOOOOOOOOOOOOOOOOOOOOOOOOOOOOOOOOOOOOOOOOOOOOO",
"OOOOOOOOOOOOOOOOOOOOOOOOOOOOOOOOOOOOOOOOOOOOOOOOOOOOOOOOOOOOOOOO",
"OOOOOOOOOOOOOOOOOOOOOOOOOOOOOOOOOOOOOOOOOOOOOOOOOOOOOOOOOOOOOOOO",
"OOOOOOOOOOOOOOOOOOOOOOOOOOOOOOOOOOOOOOOOOOOOOOOOOOOOOOOOOOOOOOOO",
"OOOOOOOOOOOOOOOOOOOOOOOOOOOOOOOOOOOOOOOOOOOOOOOOOOOOOOOOOOOOOOOO",
"OOOOOOOOOOOOOOOOOOOOOOOOOOOOOOOOOOOOOOOOOOOOOOOOOOOOOOOOOOOOOOOO",
"OOOOOOOOOOOOOOOOOOOOOOOOOOOOOOOOOOOOOOOOOOOOOOOOOOOOOOOOOOOOOOOO",
"OOOOOOOOOOOOOOOOOOOOOOOOOOOOOOOOOOOOOOOOOOOOOOOOOOOOOOOOOOOOOOOO",
"OOOOOOOOOOOOOOOOOOOOOOOOOOOOOOOOOOOOOOOOOOOOOOOOOOOOOOOOOOOOOOOO",
"OOOOOOOOOOOOOOOOOOOOOOOOOOOOOOOOOOOOOOOOOOOOOOOOOOOOOOOOOOOOOOOO"
};
