/* XPM */
static char *_890921e822c42e9cc4edfe9cbed1511Gq9FAQ09g6uaM4by[] = {
/* columns rows colors chars-per-pixel */
"64 64 4 1 ",
"  c black",
". c #22B14C",
"X c #A8E61D",
"o c #D3F9BC",
/* pixels */
"XXXXXXXXXXXXXXXXXXXXXXXXXXXXXXXXXXXXXXXXXXXXXXXXXXXXXXXXXXXXXXXX",
"XXXXXXXXXXXXXXXXXXXXXXXXXXXXXXXXXXXXXXXXXXXXXXXXXXXXXXXXXXXXXXXX",
"XXXXXXXXXXXXXXXXXXXXXXXXXXXXXXXXXXXXXXXXXXXXXXXXXXXXXXXXXXXXXXXX",
"XXXXXXXXXXXXXXXXXXXXXXXXXXXXXXXXXXXXXXXXXXXXXXXXXXXXXXXXXXXXXXXX",
"XXXXXXXXXXXXXXXXXXXXXXXXXXXXXXXXXXXXXXXXXXXXXXXXXXXXXXXXXXXXXXXX",
"XXXXXXXXXXXXXXXXXXXXXXXXXXXXXXXXXXXXXXXXXXXXXXXXXXXXXXXXXXXXXXXX",
"XXXXXXXXXXXXXXXXXXXXXXXXXXXXXXXXXXXXXXXXXXXXXXXXXXXXXXXXXXXXXXXX",
"XXXXXXXXXXXXXXXXXXXXXXXXXXXXXXXXXXXXXXXXXXXXXXXXXXXXXXXXXXXXXXXX",
"XXXXXXXXXXXXXXXXXXXXXXXXXXXXXXXXXXXXXXXXXXXXXXXXXXXXXXXXXXXXXXXX",
"XXXXXXXXXXXXXXXXXXXXXXXXXXXXXXXXXXXXXXXXXXXXXXXXXXXXXXXXXXXXXXXX",
"XXXXXXXXXXXXXXXXXXXXXXXXXXXXXXXXXXXXXXXXXXXXXXXXXXXXXXXXXXXXXXXX",
"XXXXXXXXXXXXXXXXXXXXXXXXXXXXXXXXXXXXXXXXXXXXXXXXXXXXXXXXXXXXXXXX",
"XXXXXXXXXXXXXXXXXXXXXXXXXXXXXXXXXXXXXXXXXXXXXXXXXXXXXXXXXXXXXXXX",
"XXXXXXXXXXXXXXXXXXXXXXXXXXXXXXXXXXXXXXXXXXXXXXXXXXXXXXXXXXXXXXXX",
"XXXXXXXXXXXXXXXXXXXXXXXXXXXXXXXXXXXXXXXXXXXXXXXXXXXXXXXXXXXXXXXX",
"XXXXXXXXXXXXXXXXXXXXXXXXXXXXXXXXXXXXXXXXXXXXXXXXXXXXXXXXXXXXXXXX",
"XXXXXXXXXXXXXXXXXXXXXXXXXX            XXXXXXXXXXXXXXXXXXXXXXXXXX",
"XXXXXXXXXXXXXXXXXXXXXXXXXX            XXXXXXXXXXXXXXXXXXXXXXXXXX",
"XXXXXXXXXXXXXXXXXXXXXX                    XXXXXXXXXXXXXXXXXXXXXX",
"XXXXXXXXXXXXXXXXXXXXXX                    XXXXXXXXXXXXXXXXXXXXXX",
"XXXXXXXXXXXXXXXXXXXX      ............      XXXXXXXXXXXXXXXXXXXX",
"XXXXXXXXXXXXXXXXXXXX      ............      XXXXXXXXXXXXXXXXXXXX",
"XXXXXXXXXXXXXXXXXX      ..............oo      XXXXXXXXXXXXXXXXXX",
"XXXXXXXXXXXXXXXXXX      ..............oo      XXXXXXXXXXXXXXXXXX",
"XXXXXXXXXXXXXXXXXX    ........  ........oo    XXXXXXXXXXXXXXXXXX",
"XXXXXXXXXXXXXXXXXX    ........  ........oo    XXXXXXXXXXXXXXXXXX",
"XXXXXXXXXXXXXXXX    ........  ..oo........oo    XXXXXXXXXXXXXXXX",
"XXXXXXXXXXXXXXXX    ........  ..oo........oo    XXXXXXXXXXXXXXXX",
"XXXXXXXXXXXXXXXX    ........  ..oo........oo    XXXXXXXXXXXXXXXX",
"XXXXXXXXXXXXXXXX    ........  ..oo........oo    XXXXXXXXXXXXXXXX",
"XXXXXXXXXXXXXXXX    ........  ..oo........oo    XXXXXXXXXXXXXXXX",
"XXXXXXXXXXXXXXXX    ........  ..oo........oo    XXXXXXXXXXXXXXXX",
"XXXXXXXXXXXXXXXX    ........  ..oo........oo    XXXXXXXXXXXXXXXX",
"XXXXXXXXXXXXXXXX    ........  ..oo........oo    XXXXXXXXXXXXXXXX",
"XXXXXXXXXXXXXXXX    ........  ..oo........oo    XXXXXXXXXXXXXXXX",
"XXXXXXXXXXXXXXXX    ........  ..oo........oo    XXXXXXXXXXXXXXXX",
"XXXXXXXXXXXXXXXX    ........  ..oo........oo    XXXXXXXXXXXXXXXX",
"XXXXXXXXXXXXXXXX    ........  ..oo........oo    XXXXXXXXXXXXXXXX",
"XXXXXXXXXXXXXXXXXX    ........  ........oo    XXXXXXXXXXXXXXXXXX",
"XXXXXXXXXXXXXXXXXX    ........  ........oo    XXXXXXXXXXXXXXXXXX",
"XXXXXXXXXXXXXXXXXX      ..............oo      XXXXXXXXXXXXXXXXXX",
"XXXXXXXXXXXXXXXXXX      ..............oo      XXXXXXXXXXXXXXXXXX",
"XXXXXXXXXXXXXXXXXXXX      ............      XXXXXXXXXXXXXXXXXXXX",
"XXXXXXXXXXXXXXXXXXXX      ............      XXXXXXXXXXXXXXXXXXXX",
"XXXXXXXXXXXXXXXXXXXXXX                    XXXXXXXXXXXXXXXXXXXXXX",
"XXXXXXXXXXXXXXXXXXXXXX                    XXXXXXXXXXXXXXXXXXXXXX",
"XXXXXXXXXXXXXXXXXXXXXXXXXX            XXXXXXXXXXXXXXXXXXXXXXXXXX",
"XXXXXXXXXXXXXXXXXXXXXXXXXX            XXXXXXXXXXXXXXXXXXXXXXXXXX",
"XXXXXXXXXXXXXXXXXXXXXXXXXXXXXXXXXXXXXXXXXXXXXXXXXXXXXXXXXXXXXXXX",
"XXXXXXXXXXXXXXXXXXXXXXXXXXXXXXXXXXXXXXXXXXXXXXXXXXXXXXXXXXXXXXXX",
"XXXXXXXXXXXXXXXXXXXXXXXXXXXXXXXXXXXXXXXXXXXXXXXXXXXXXXXXXXXXXXXX",
"XXXXXXXXXXXXXXXXXXXXXXXXXXXXXXXXXXXXXXXXXXXXXXXXXXXXXXXXXXXXXXXX",
"XXXXXXXXXXXXXXXXXXXXXXXXXXXXXXXXXXXXXXXXXXXXXXXXXXXXXXXXXXXXXXXX",
"XXXXXXXXXXXXXXXXXXXXXXXXXXXXXXXXXXXXXXXXXXXXXXXXXXXXXXXXXXXXXXXX",
"XXXXXXXXXXXXXXXXXXXXXXXXXXXXXXXXXXXXXXXXXXXXXXXXXXXXXXXXXXXXXXXX",
"XXXXXXXXXXXXXXXXXXXXXXXXXXXXXXXXXXXXXXXXXXXXXXXXXXXXXXXXXXXXXXXX",
"XXXXXXXXXXXXXXXXXXXXXXXXXXXXXXXXXXXXXXXXXXXXXXXXXXXXXXXXXXXXXXXX",
"XXXXXXXXXXXXXXXXXXXXXXXXXXXXXXXXXXXXXXXXXXXXXXXXXXXXXXXXXXXXXXXX",
"XXXXXXXXXXXXXXXXXXXXXXXXXXXXXXXXXXXXXXXXXXXXXXXXXXXXXXXXXXXXXXXX",
"XXXXXXXXXXXXXXXXXXXXXXXXXXXXXXXXXXXXXXXXXXXXXXXXXXXXXXXXXXXXXXXX",
"XXXXXXXXXXXXXXXXXXXXXXXXXXXXXXXXXXXXXXXXXXXXXXXXXXXXXXXXXXXXXXXX",
"XXXXXXXXXXXXXXXXXXXXXXXXXXXXXXXXXXXXXXXXXXXXXXXXXXXXXXXXXXXXXXXX",
"XXXXXXXXXXXXXXXXXXXXXXXXXXXXXXXXXXXXXXXXXXXXXXXXXXXXXXXXXXXXXXXX",
"XXXXXXXXXXXXXXXXXXXXXXXXXXXXXXXXXXXXXXXXXXXXXXXXXXXXXXXXXXXXXXXX"
};
